<svg xmlns="http://www.w3.org/2000/svg" width="805" height="600"><rect width="805" height="600" x="0" y="0" fill="#FFFFFF" id="backgorund"/><g id="viz"><clipPath id="serieClipPath"><rect x="-50" y="-10" width="805" height="600"/></clipPath><g transform="translate(0,0)"><g transform="translate(50,10)" clip-path="url(#serieClipPath)"><g id="axis"><g transform="translate(0,570)" fill="none" font-size="10" font-family="sans-serif" text-anchor="middle"><path class="domain" stroke="currentColor" d="M0,6V0H740V6"/><g class="tick" opacity="1" transform="translate(0,0)"><line stroke="currentColor" y2="6"/><text fill="currentColor" y="9" dy="0.71em">0</text></g><g class="tick" opacity="1" transform="translate(61.666666666666664,0)"><line stroke="currentColor" y2="6"/><text fill="currentColor" y="9" dy="0.71em">5</text></g><g class="tick" opacity="1" transform="translate(123.33333333333333,0)"><line stroke="currentColor" y2="6"/><text fill="currentColor" y="9" dy="0.71em">10</text></g><g class="tick" opacity="1" transform="translate(185,0)"><line stroke="currentColor" y2="6"/><text fill="currentColor" y="9" dy="0.71em">15</text></g><g class="tick" opacity="1" transform="translate(246.66666666666666,0)"><line stroke="currentColor" y2="6"/><text fill="currentColor" y="9" dy="0.71em">20</text></g><g class="tick" opacity="1" transform="translate(308.33333333333337,0)"><line stroke="currentColor" y2="6"/><text fill="currentColor" y="9" dy="0.71em">25</text></g><g class="tick" opacity="1" transform="translate(370,0)"><line stroke="currentColor" y2="6"/><text fill="currentColor" y="9" dy="0.71em">30</text></g><g class="tick" opacity="1" transform="translate(431.6666666666667,0)"><line stroke="currentColor" y2="6"/><text fill="currentColor" y="9" dy="0.71em">35</text></g><g class="tick" opacity="1" transform="translate(493.3333333333333,0)"><line stroke="currentColor" y2="6"/><text fill="currentColor" y="9" dy="0.71em">40</text></g><g class="tick" opacity="1" transform="translate(555,0)"><line stroke="currentColor" y2="6"/><text fill="currentColor" y="9" dy="0.71em">45</text></g><g class="tick" opacity="1" transform="translate(616.6666666666667,0)"><line stroke="currentColor" y2="6"/><text fill="currentColor" y="9" dy="0.71em">50</text></g><g class="tick" opacity="1" transform="translate(678.3333333333333,0)"><line stroke="currentColor" y2="6"/><text fill="currentColor" y="9" dy="0.71em">55</text></g><g class="tick" opacity="1" transform="translate(740,0)"><line stroke="currentColor" y2="6"/><text fill="currentColor" y="9" dy="0.71em">60</text></g><text x="740" dy="-5" text-anchor="end" style="font-family: Arial, sans-serif; font-size: 12px; fill: rgb(123, 123, 123); font-weight: bold;">N° Día</text></g><g transform="translate(0,0)" fill="none" font-size="10" font-family="sans-serif" text-anchor="end"><path class="domain" stroke="currentColor" d="M0,570V0"/><g class="tick" opacity="1" transform="translate(0,570)"><line stroke="currentColor" x2="-6"/><text fill="currentColor" x="-9" dy="0.32em">5.0</text></g><g class="tick" opacity="1" transform="translate(0,518.1818181818181)"><line stroke="currentColor" x2="-6"/><text fill="currentColor" x="-9" dy="0.32em">5.5</text></g><g class="tick" opacity="1" transform="translate(0,466.3636363636363)"><line stroke="currentColor" x2="-6"/><text fill="currentColor" x="-9" dy="0.32em">6.0</text></g><g class="tick" opacity="1" transform="translate(0,414.54545454545456)"><line stroke="currentColor" x2="-6"/><text fill="currentColor" x="-9" dy="0.32em">6.5</text></g><g class="tick" opacity="1" transform="translate(0,362.72727272727275)"><line stroke="currentColor" x2="-6"/><text fill="currentColor" x="-9" dy="0.32em">7.0</text></g><g class="tick" opacity="1" transform="translate(0,310.9090909090909)"><line stroke="currentColor" x2="-6"/><text fill="currentColor" x="-9" dy="0.32em">7.5</text></g><g class="tick" opacity="1" transform="translate(0,259.0909090909091)"><line stroke="currentColor" x2="-6"/><text fill="currentColor" x="-9" dy="0.32em">8.0</text></g><g class="tick" opacity="1" transform="translate(0,207.27272727272728)"><line stroke="currentColor" x2="-6"/><text fill="currentColor" x="-9" dy="0.32em">8.5</text></g><g class="tick" opacity="1" transform="translate(0,155.45454545454544)"><line stroke="currentColor" x2="-6"/><text fill="currentColor" x="-9" dy="0.32em">9.0</text></g><g class="tick" opacity="1" transform="translate(0,103.63636363636361)"><line stroke="currentColor" x2="-6"/><text fill="currentColor" x="-9" dy="0.32em">9.5</text></g><g class="tick" opacity="1" transform="translate(0,51.818181818181834)"><line stroke="currentColor" x2="-6"/><text fill="currentColor" x="-9" dy="0.32em">10.0</text></g><g class="tick" opacity="1" transform="translate(0,0)"><line stroke="currentColor" x2="-6"/><text fill="currentColor" x="-9" dy="0.32em">10.5</text></g><text x="4" text-anchor="start" dominant-baseline="hanging" style="font-family: Arial, sans-serif; font-size: 12px; fill: rgb(123, 123, 123); font-weight: bold;">Horas de sueño</text></g></g><g id="viz"><g><path d="M12.333333333333334,240.43636363636367C18.5,240.43636363636367,18.5,264.27272727272725,24.666666666666668,264.27272727272725C30.833333333333336,264.27272727272725,30.833333333333336,266.3454545454546,37,266.3454545454546C43.16666666666667,266.3454545454546,43.16666666666667,463.25454545454545,49.333333333333336,463.25454545454545C55.5,463.25454545454545,55.5,281.8909090909091,61.666666666666664,281.8909090909091C67.83333333333333,281.8909090909091,67.83333333333333,224.89090909090908,74,224.89090909090908C80.16666666666666,224.89090909090908,80.16666666666666,178.25454545454554,86.33333333333333,178.25454545454554C92.5,178.25454545454554,92.5,257.0181818181819,98.66666666666667,257.0181818181819C104.83333333333334,257.0181818181819,104.83333333333334,321.2727272727272,111,321.2727272727272C117.16666666666666,321.2727272727272,117.16666666666666,310.9090909090909,123.33333333333333,310.9090909090909C129.5,310.9090909090909,129.5,264.27272727272725,135.66666666666666,264.27272727272725C141.83333333333331,264.27272727272725,141.83333333333331,293.29090909090917,148,293.29090909090917C154.16666666666669,293.29090909090917,154.16666666666669,293.29090909090917,160.33333333333334,293.29090909090917C166.5,293.29090909090917,166.5,339.92727272727274,172.66666666666666,339.92727272727274C178.83333333333331,339.92727272727274,178.83333333333331,217.63636363636357,185,217.63636363636357C191.16666666666669,217.63636363636357,191.16666666666669,285,197.33333333333334,285C203.5,285,203.5,251.83636363636361,209.66666666666666,251.83636363636361C215.83333333333331,251.83636363636361,215.83333333333331,179.2909090909091,222,179.2909090909091C228.16666666666666,179.2909090909091,228.16666666666666,538.9090909090909,234.33333333333331,538.9090909090909C240.5,538.9090909090909,240.5,298.4727272727273,246.66666666666666,298.4727272727273C252.83333333333331,298.4727272727273,252.83333333333331,302.6181818181818,259,302.6181818181818C265.16666666666663,302.6181818181818,265.16666666666663,338.8909090909091,271.3333333333333,338.8909090909091C277.5,338.8909090909091,277.5,417.6545454545455,283.6666666666667,417.6545454545455C289.83333333333337,417.6545454545455,289.83333333333337,277.7454545454545,296,277.7454545454545C302.1666666666667,277.7454545454545,302.1666666666667,433.2,308.33333333333337,433.2C314.5,433.2,314.5,191.7272727272727,320.6666666666667,191.7272727272727C326.83333333333337,191.7272727272727,326.83333333333337,285,333,285C339.16666666666663,285,339.16666666666663,178.25454545454554,345.3333333333333,178.25454545454554C351.5,178.25454545454554,351.5,380.3454545454545,357.6666666666667,380.3454545454545C363.83333333333337,380.3454545454545,363.83333333333337,236.29090909090903,370,236.29090909090903C376.1666666666667,236.29090909090903,376.1666666666667,215.56363636363636,382.33333333333337,215.56363636363636C388.5,215.56363636363636,388.5,352.3636363636364,394.6666666666667,352.3636363636364C400.83333333333337,352.3636363636364,400.83333333333337,391.74545454545455,407.00000000000006,391.74545454545455C413.1666666666667,391.74545454545455,413.1666666666667,276.70909090909095,419.3333333333333,276.70909090909095C425.5,276.70909090909095,425.5,243.54545454545453,431.6666666666667,243.54545454545453C437.83333333333337,243.54545454545453,437.83333333333337,319.20000000000005,444,319.20000000000005C450.1666666666667,319.20000000000005,450.1666666666667,287.0727272727272,456.33333333333337,287.0727272727272C462.5,287.0727272727272,462.5,220.74545454545463,468.66666666666663,220.74545454545463C474.8333333333333,220.74545454545463,474.8333333333333,556.5272727272728,481,556.5272727272728C487.16666666666663,556.5272727272728,487.16666666666663,181.3636363636364,493.3333333333333,181.3636363636364C499.5,181.3636363636364,499.5,357.54545454545456,505.6666666666667,357.54545454545456C511.83333333333337,357.54545454545456,511.83333333333337,448.7454545454546,518,448.7454545454546C524.1666666666667,448.7454545454546,524.1666666666667,293.29090909090917,530.3333333333334,293.29090909090917C536.5,293.29090909090917,536.5,220.74545454545463,542.6666666666666,220.74545454545463C548.8333333333333,220.74545454545463,548.8333333333333,189.65454545454548,555,189.65454545454548C561.1666666666667,189.65454545454548,561.1666666666667,261.16363636363633,567.3333333333334,261.16363636363633C573.5,261.16363636363633,573.5,152.34545454545463,579.6666666666666,152.34545454545463C585.8333333333333,152.34545454545463,585.8333333333333,152.34545454545463,592,152.34545454545463C598.1666666666667,152.34545454545463,598.1666666666667,162.70909090909095,604.3333333333334,162.70909090909095C610.5,162.70909090909095,610.5,380.3454545454545,616.6666666666667,380.3454545454545C622.8333333333334,380.3454545454545,622.8333333333334,293.29090909090917,629,293.29090909090917C635.1666666666667,293.29090909090917,635.1666666666667,0,641.3333333333334,0C647.5,0,647.5,468.43636363636364,653.6666666666666,468.43636363636364C659.8333333333333,468.43636363636364,659.8333333333333,181.3636363636364,666,181.3636363636364C672.1666666666666,181.3636363636364,672.1666666666666,357.54545454545456,678.3333333333333,357.54545454545456C684.5,357.54545454545456,684.5,155.45454545454544,690.6666666666666,155.45454545454544C696.8333333333333,155.45454545454544,696.8333333333333,380.3454545454545,703,380.3454545454545C709.1666666666667,380.3454545454545,709.1666666666667,350.29090909090905,715.3333333333334,350.29090909090905C721.5,350.29090909090905,721.5,215.56363636363636,727.6666666666666,215.56363636363636C733.8333333333333,215.56363636363636,733.8333333333333,515.0727272727272,740,515.0727272727272" stroke="rgb(245, 166, 35)" fill="none"/><text font-family="sans-serif" font-size="10" class="labels" x="641.3333333333334" y="0" dx="0" dy="-4" text-anchor="middle"/></g></g></g><text y="4" x="4" style="font-family: Arial, sans-serif; font-size: 12px; fill: black; font-weight: bold; dominant-baseline: hanging;"/></g><g id="grid"><rect x="0" y="0" width="805" height="600" fill="none" stroke="#ccc"/></g></g></svg>