<svg xmlns="http://www.w3.org/2000/svg" width="1000" height="600"><rect width="1000" height="600" x="0" y="0" fill="#FFFFFF" id="backgorund"/><g id="viz"><clipPath id="serieClipPath"><rect x="-50" y="-10" width="1000" height="600"/></clipPath><g transform="translate(0,0)"><g transform="translate(50,10)" clip-path="url(#serieClipPath)"><g id="axis"><g transform="translate(0,570)" fill="none" font-size="10" font-family="sans-serif" text-anchor="middle"><path class="domain" stroke="currentColor" d="M0,6V0H935V6"/><g class="tick" opacity="1" transform="translate(0,0)"><line stroke="currentColor" y2="6"/><text fill="currentColor" y="9" dy="0.71em">0</text></g><g class="tick" opacity="1" transform="translate(77.91666666666666,0)"><line stroke="currentColor" y2="6"/><text fill="currentColor" y="9" dy="0.71em">5</text></g><g class="tick" opacity="1" transform="translate(155.83333333333331,0)"><line stroke="currentColor" y2="6"/><text fill="currentColor" y="9" dy="0.71em">10</text></g><g class="tick" opacity="1" transform="translate(233.75,0)"><line stroke="currentColor" y2="6"/><text fill="currentColor" y="9" dy="0.71em">15</text></g><g class="tick" opacity="1" transform="translate(311.66666666666663,0)"><line stroke="currentColor" y2="6"/><text fill="currentColor" y="9" dy="0.71em">20</text></g><g class="tick" opacity="1" transform="translate(389.58333333333337,0)"><line stroke="currentColor" y2="6"/><text fill="currentColor" y="9" dy="0.71em">25</text></g><g class="tick" opacity="1" transform="translate(467.5,0)"><line stroke="currentColor" y2="6"/><text fill="currentColor" y="9" dy="0.71em">30</text></g><g class="tick" opacity="1" transform="translate(545.4166666666667,0)"><line stroke="currentColor" y2="6"/><text fill="currentColor" y="9" dy="0.71em">35</text></g><g class="tick" opacity="1" transform="translate(623.3333333333333,0)"><line stroke="currentColor" y2="6"/><text fill="currentColor" y="9" dy="0.71em">40</text></g><g class="tick" opacity="1" transform="translate(701.25,0)"><line stroke="currentColor" y2="6"/><text fill="currentColor" y="9" dy="0.71em">45</text></g><g class="tick" opacity="1" transform="translate(779.1666666666667,0)"><line stroke="currentColor" y2="6"/><text fill="currentColor" y="9" dy="0.71em">50</text></g><g class="tick" opacity="1" transform="translate(857.0833333333333,0)"><line stroke="currentColor" y2="6"/><text fill="currentColor" y="9" dy="0.71em">55</text></g><g class="tick" opacity="1" transform="translate(935,0)"><line stroke="currentColor" y2="6"/><text fill="currentColor" y="9" dy="0.71em">60</text></g><text x="935" dy="-5" text-anchor="end" style="font-family: Arial, sans-serif; font-size: 12px; fill: rgb(123, 123, 123); font-weight: bold;">N° Día</text></g><g transform="translate(0,0)" fill="none" font-size="10" font-family="sans-serif" text-anchor="end"><path class="domain" stroke="currentColor" d="M0,570V0"/><g class="tick" opacity="1" transform="translate(0,570)"><line stroke="currentColor" x2="-6"/><text fill="currentColor" x="-9" dy="0.32em">5.0</text></g><g class="tick" opacity="1" transform="translate(0,518.1818181818181)"><line stroke="currentColor" x2="-6"/><text fill="currentColor" x="-9" dy="0.32em">5.5</text></g><g class="tick" opacity="1" transform="translate(0,466.3636363636363)"><line stroke="currentColor" x2="-6"/><text fill="currentColor" x="-9" dy="0.32em">6.0</text></g><g class="tick" opacity="1" transform="translate(0,414.54545454545456)"><line stroke="currentColor" x2="-6"/><text fill="currentColor" x="-9" dy="0.32em">6.5</text></g><g class="tick" opacity="1" transform="translate(0,362.72727272727275)"><line stroke="currentColor" x2="-6"/><text fill="currentColor" x="-9" dy="0.32em">7.0</text></g><g class="tick" opacity="1" transform="translate(0,310.9090909090909)"><line stroke="currentColor" x2="-6"/><text fill="currentColor" x="-9" dy="0.32em">7.5</text></g><g class="tick" opacity="1" transform="translate(0,259.0909090909091)"><line stroke="currentColor" x2="-6"/><text fill="currentColor" x="-9" dy="0.32em">8.0</text></g><g class="tick" opacity="1" transform="translate(0,207.27272727272728)"><line stroke="currentColor" x2="-6"/><text fill="currentColor" x="-9" dy="0.32em">8.5</text></g><g class="tick" opacity="1" transform="translate(0,155.45454545454544)"><line stroke="currentColor" x2="-6"/><text fill="currentColor" x="-9" dy="0.32em">9.0</text></g><g class="tick" opacity="1" transform="translate(0,103.63636363636361)"><line stroke="currentColor" x2="-6"/><text fill="currentColor" x="-9" dy="0.32em">9.5</text></g><g class="tick" opacity="1" transform="translate(0,51.818181818181834)"><line stroke="currentColor" x2="-6"/><text fill="currentColor" x="-9" dy="0.32em">10.0</text></g><g class="tick" opacity="1" transform="translate(0,0)"><line stroke="currentColor" x2="-6"/><text fill="currentColor" x="-9" dy="0.32em">10.5</text></g><text x="4" text-anchor="start" dominant-baseline="hanging" style="font-family: Arial, sans-serif; font-size: 12px; fill: rgb(123, 123, 123); font-weight: bold;">Horas de sueño</text></g></g><g id="viz"><g><path d="M15.583333333333334,240.43636363636367C23.375,240.43636363636367,23.375,264.27272727272725,31.166666666666668,264.27272727272725C38.958333333333336,264.27272727272725,38.958333333333336,266.3454545454546,46.75,266.3454545454546C54.54166666666667,266.3454545454546,54.54166666666667,463.25454545454545,62.333333333333336,463.25454545454545C70.125,463.25454545454545,70.125,281.8909090909091,77.91666666666666,281.8909090909091C85.70833333333333,281.8909090909091,85.70833333333333,224.89090909090908,93.5,224.89090909090908C101.29166666666666,224.89090909090908,101.29166666666666,178.25454545454554,109.08333333333333,178.25454545454554C116.875,178.25454545454554,116.875,257.0181818181819,124.66666666666667,257.0181818181819C132.45833333333334,257.0181818181819,132.45833333333334,321.2727272727272,140.25,321.2727272727272C148.04166666666666,321.2727272727272,148.04166666666666,310.9090909090909,155.83333333333331,310.9090909090909C163.625,310.9090909090909,163.625,264.27272727272725,171.41666666666666,264.27272727272725C179.20833333333331,264.27272727272725,179.20833333333331,293.29090909090917,187,293.29090909090917C194.79166666666669,293.29090909090917,194.79166666666669,293.29090909090917,202.58333333333334,293.29090909090917C210.375,293.29090909090917,210.375,339.92727272727274,218.16666666666666,339.92727272727274C225.95833333333331,339.92727272727274,225.95833333333331,217.63636363636357,233.75,217.63636363636357C241.54166666666669,217.63636363636357,241.54166666666669,285,249.33333333333334,285C257.125,285,257.125,251.83636363636361,264.9166666666667,251.83636363636361C272.70833333333337,251.83636363636361,272.70833333333337,179.2909090909091,280.5,179.2909090909091C288.29166666666663,179.2909090909091,288.29166666666663,538.9090909090909,296.0833333333333,538.9090909090909C303.875,538.9090909090909,303.875,298.4727272727273,311.66666666666663,298.4727272727273C319.4583333333333,298.4727272727273,319.4583333333333,302.6181818181818,327.25,302.6181818181818C335.04166666666663,302.6181818181818,335.04166666666663,338.8909090909091,342.8333333333333,338.8909090909091C350.625,338.8909090909091,350.625,417.6545454545455,358.4166666666667,417.6545454545455C366.20833333333337,417.6545454545455,366.20833333333337,277.7454545454545,374,277.7454545454545C381.7916666666667,277.7454545454545,381.7916666666667,433.2,389.58333333333337,433.2C397.375,433.2,397.375,191.7272727272727,405.1666666666667,191.7272727272727C412.95833333333337,191.7272727272727,412.95833333333337,285,420.75,285C428.54166666666663,285,428.54166666666663,178.25454545454554,436.3333333333333,178.25454545454554C444.125,178.25454545454554,444.125,380.3454545454545,451.9166666666667,380.3454545454545C459.70833333333337,380.3454545454545,459.70833333333337,236.29090909090903,467.5,236.29090909090903C475.2916666666667,236.29090909090903,475.2916666666667,215.56363636363636,483.08333333333337,215.56363636363636C490.875,215.56363636363636,490.875,352.3636363636364,498.6666666666667,352.3636363636364C506.45833333333337,352.3636363636364,506.45833333333337,391.74545454545455,514.25,391.74545454545455C522.0416666666667,391.74545454545455,522.0416666666667,276.70909090909095,529.8333333333334,276.70909090909095C537.625,276.70909090909095,537.625,243.54545454545453,545.4166666666667,243.54545454545453C553.2083333333334,243.54545454545453,553.2083333333334,319.20000000000005,561,319.20000000000005C568.7916666666667,319.20000000000005,568.7916666666667,287.0727272727272,576.5833333333334,287.0727272727272C584.375,287.0727272727272,584.375,220.74545454545463,592.1666666666666,220.74545454545463C599.9583333333333,220.74545454545463,599.9583333333333,556.5272727272728,607.75,556.5272727272728C615.5416666666666,556.5272727272728,615.5416666666666,181.3636363636364,623.3333333333333,181.3636363636364C631.125,181.3636363636364,631.125,357.54545454545456,638.9166666666666,357.54545454545456C646.7083333333333,357.54545454545456,646.7083333333333,448.7454545454546,654.5,448.7454545454546C662.2916666666667,448.7454545454546,662.2916666666667,293.29090909090917,670.0833333333334,293.29090909090917C677.875,293.29090909090917,677.875,220.74545454545463,685.6666666666666,220.74545454545463C693.4583333333333,220.74545454545463,693.4583333333333,189.65454545454548,701.25,189.65454545454548C709.0416666666667,189.65454545454548,709.0416666666667,261.16363636363633,716.8333333333334,261.16363636363633C724.625,261.16363636363633,724.625,152.34545454545463,732.4166666666666,152.34545454545463C740.2083333333333,152.34545454545463,740.2083333333333,152.34545454545463,748,152.34545454545463C755.7916666666667,152.34545454545463,755.7916666666667,162.70909090909095,763.5833333333334,162.70909090909095C771.375,162.70909090909095,771.375,380.3454545454545,779.1666666666667,380.3454545454545C786.9583333333334,380.3454545454545,786.9583333333334,293.29090909090917,794.75,293.29090909090917C802.5416666666667,293.29090909090917,802.5416666666667,0,810.3333333333334,0C818.125,0,818.125,468.43636363636364,825.9166666666666,468.43636363636364C833.7083333333333,468.43636363636364,833.7083333333333,181.3636363636364,841.5,181.3636363636364C849.2916666666666,181.3636363636364,849.2916666666666,357.54545454545456,857.0833333333333,357.54545454545456C864.875,357.54545454545456,864.875,155.45454545454544,872.6666666666666,155.45454545454544C880.4583333333333,155.45454545454544,880.4583333333333,380.3454545454545,888.25,380.3454545454545C896.0416666666667,380.3454545454545,896.0416666666667,350.29090909090905,903.8333333333334,350.29090909090905C911.625,350.29090909090905,911.625,215.56363636363636,919.4166666666666,215.56363636363636C927.2083333333333,215.56363636363636,927.2083333333333,515.0727272727272,935,515.0727272727272" stroke="rgb(245, 166, 35)" fill="none"/><text font-family="sans-serif" font-size="10" class="labels" x="810.3333333333334" y="0" dx="0" dy="-4" text-anchor="middle"/></g></g></g><text y="4" x="4" style="font-family: Arial, sans-serif; font-size: 12px; fill: black; font-weight: bold; dominant-baseline: hanging;"/></g><g id="grid"><rect x="0" y="0" width="1000" height="600" fill="none" stroke="#ccc"/></g></g></svg>