<svg xmlns="http://www.w3.org/2000/svg" width="1200" height="600"><rect width="1200" height="600" x="0" y="0" fill="#FFFFFF" id="backgorund"/><g id="viz"><clipPath id="serieClipPath"><rect x="-50" y="-10" width="1200" height="600"/></clipPath><g transform="translate(0,0)"><g transform="translate(50,10)" clip-path="url(#serieClipPath)"><g id="axis"><g transform="translate(0,570)" fill="none" font-size="10" font-family="sans-serif" text-anchor="middle"><path class="domain" stroke="currentColor" d="M0,6V0H1135V6"/><g class="tick" opacity="1" transform="translate(0,0)"><line stroke="currentColor" y2="6"/><text fill="currentColor" y="9" dy="0.71em">0</text></g><g class="tick" opacity="1" transform="translate(94.58333333333333,0)"><line stroke="currentColor" y2="6"/><text fill="currentColor" y="9" dy="0.71em">5</text></g><g class="tick" opacity="1" transform="translate(189.16666666666666,0)"><line stroke="currentColor" y2="6"/><text fill="currentColor" y="9" dy="0.71em">10</text></g><g class="tick" opacity="1" transform="translate(283.75,0)"><line stroke="currentColor" y2="6"/><text fill="currentColor" y="9" dy="0.71em">15</text></g><g class="tick" opacity="1" transform="translate(378.3333333333333,0)"><line stroke="currentColor" y2="6"/><text fill="currentColor" y="9" dy="0.71em">20</text></g><g class="tick" opacity="1" transform="translate(472.9166666666667,0)"><line stroke="currentColor" y2="6"/><text fill="currentColor" y="9" dy="0.71em">25</text></g><g class="tick" opacity="1" transform="translate(567.5,0)"><line stroke="currentColor" y2="6"/><text fill="currentColor" y="9" dy="0.71em">30</text></g><g class="tick" opacity="1" transform="translate(662.0833333333334,0)"><line stroke="currentColor" y2="6"/><text fill="currentColor" y="9" dy="0.71em">35</text></g><g class="tick" opacity="1" transform="translate(756.6666666666666,0)"><line stroke="currentColor" y2="6"/><text fill="currentColor" y="9" dy="0.71em">40</text></g><g class="tick" opacity="1" transform="translate(851.25,0)"><line stroke="currentColor" y2="6"/><text fill="currentColor" y="9" dy="0.71em">45</text></g><g class="tick" opacity="1" transform="translate(945.8333333333334,0)"><line stroke="currentColor" y2="6"/><text fill="currentColor" y="9" dy="0.71em">50</text></g><g class="tick" opacity="1" transform="translate(1040.4166666666665,0)"><line stroke="currentColor" y2="6"/><text fill="currentColor" y="9" dy="0.71em">55</text></g><g class="tick" opacity="1" transform="translate(1135,0)"><line stroke="currentColor" y2="6"/><text fill="currentColor" y="9" dy="0.71em">60</text></g><text x="1135" dy="-5" text-anchor="end" style="font-family: Arial, sans-serif; font-size: 12px; fill: rgb(123, 123, 123); font-weight: bold;">N° Día</text></g><g transform="translate(0,0)" fill="none" font-size="10" font-family="sans-serif" text-anchor="end"><path class="domain" stroke="currentColor" d="M0,570V0"/><g class="tick" opacity="1" transform="translate(0,570)"><line stroke="currentColor" x2="-6"/><text fill="currentColor" x="-9" dy="0.32em">5.0</text></g><g class="tick" opacity="1" transform="translate(0,518.1818181818181)"><line stroke="currentColor" x2="-6"/><text fill="currentColor" x="-9" dy="0.32em">5.5</text></g><g class="tick" opacity="1" transform="translate(0,466.3636363636363)"><line stroke="currentColor" x2="-6"/><text fill="currentColor" x="-9" dy="0.32em">6.0</text></g><g class="tick" opacity="1" transform="translate(0,414.54545454545456)"><line stroke="currentColor" x2="-6"/><text fill="currentColor" x="-9" dy="0.32em">6.5</text></g><g class="tick" opacity="1" transform="translate(0,362.72727272727275)"><line stroke="currentColor" x2="-6"/><text fill="currentColor" x="-9" dy="0.32em">7.0</text></g><g class="tick" opacity="1" transform="translate(0,310.9090909090909)"><line stroke="currentColor" x2="-6"/><text fill="currentColor" x="-9" dy="0.32em">7.5</text></g><g class="tick" opacity="1" transform="translate(0,259.0909090909091)"><line stroke="currentColor" x2="-6"/><text fill="currentColor" x="-9" dy="0.32em">8.0</text></g><g class="tick" opacity="1" transform="translate(0,207.27272727272728)"><line stroke="currentColor" x2="-6"/><text fill="currentColor" x="-9" dy="0.32em">8.5</text></g><g class="tick" opacity="1" transform="translate(0,155.45454545454544)"><line stroke="currentColor" x2="-6"/><text fill="currentColor" x="-9" dy="0.32em">9.0</text></g><g class="tick" opacity="1" transform="translate(0,103.63636363636361)"><line stroke="currentColor" x2="-6"/><text fill="currentColor" x="-9" dy="0.32em">9.5</text></g><g class="tick" opacity="1" transform="translate(0,51.818181818181834)"><line stroke="currentColor" x2="-6"/><text fill="currentColor" x="-9" dy="0.32em">10.0</text></g><g class="tick" opacity="1" transform="translate(0,0)"><line stroke="currentColor" x2="-6"/><text fill="currentColor" x="-9" dy="0.32em">10.5</text></g><text x="4" text-anchor="start" dominant-baseline="hanging" style="font-family: Arial, sans-serif; font-size: 12px; fill: rgb(123, 123, 123); font-weight: bold;">Horas de sueño</text></g></g><g id="viz"><g><path d="M18.916666666666668,240.43636363636367C28.375,240.43636363636367,28.375,264.27272727272725,37.833333333333336,264.27272727272725C47.29166666666667,264.27272727272725,47.29166666666667,266.3454545454546,56.75,266.3454545454546C66.20833333333334,266.3454545454546,66.20833333333334,463.25454545454545,75.66666666666667,463.25454545454545C85.125,463.25454545454545,85.125,281.8909090909091,94.58333333333333,281.8909090909091C104.04166666666666,281.8909090909091,104.04166666666666,224.89090909090908,113.5,224.89090909090908C122.95833333333333,224.89090909090908,122.95833333333333,178.25454545454554,132.41666666666666,178.25454545454554C141.875,178.25454545454554,141.875,257.0181818181819,151.33333333333334,257.0181818181819C160.79166666666669,257.0181818181819,160.79166666666669,321.2727272727272,170.25,321.2727272727272C179.70833333333331,321.2727272727272,179.70833333333331,310.9090909090909,189.16666666666666,310.9090909090909C198.625,310.9090909090909,198.625,264.27272727272725,208.08333333333331,264.27272727272725C217.54166666666666,264.27272727272725,217.54166666666666,293.29090909090917,227,293.29090909090917C236.45833333333334,293.29090909090917,236.45833333333334,293.29090909090917,245.91666666666669,293.29090909090917C255.375,293.29090909090917,255.375,339.92727272727274,264.8333333333333,339.92727272727274C274.29166666666663,339.92727272727274,274.29166666666663,217.63636363636357,283.75,217.63636363636357C293.20833333333337,217.63636363636357,293.20833333333337,285,302.6666666666667,285C312.125,285,312.125,251.83636363636361,321.5833333333333,251.83636363636361C331.04166666666663,251.83636363636361,331.04166666666663,179.2909090909091,340.5,179.2909090909091C349.9583333333333,179.2909090909091,349.9583333333333,538.9090909090909,359.41666666666663,538.9090909090909C368.875,538.9090909090909,368.875,298.4727272727273,378.3333333333333,298.4727272727273C387.79166666666663,298.4727272727273,387.79166666666663,302.6181818181818,397.25,302.6181818181818C406.7083333333333,302.6181818181818,406.7083333333333,338.8909090909091,416.16666666666663,338.8909090909091C425.625,338.8909090909091,425.625,417.6545454545455,435.08333333333337,417.6545454545455C444.5416666666667,417.6545454545455,444.5416666666667,277.7454545454545,454,277.7454545454545C463.45833333333337,277.7454545454545,463.45833333333337,433.2,472.9166666666667,433.2C482.375,433.2,482.375,191.7272727272727,491.83333333333337,191.7272727272727C501.2916666666667,191.7272727272727,501.2916666666667,285,510.75,285C520.2083333333333,285,520.2083333333333,178.25454545454554,529.6666666666666,178.25454545454554C539.125,178.25454545454554,539.125,380.3454545454545,548.5833333333334,380.3454545454545C558.0416666666667,380.3454545454545,558.0416666666667,236.29090909090903,567.5,236.29090909090903C576.9583333333334,236.29090909090903,576.9583333333334,215.56363636363636,586.4166666666667,215.56363636363636C595.875,215.56363636363636,595.875,352.3636363636364,605.3333333333334,352.3636363636364C614.7916666666667,352.3636363636364,614.7916666666667,391.74545454545455,624.25,391.74545454545455C633.7083333333333,391.74545454545455,633.7083333333333,276.70909090909095,643.1666666666666,276.70909090909095C652.625,276.70909090909095,652.625,243.54545454545453,662.0833333333334,243.54545454545453C671.5416666666667,243.54545454545453,671.5416666666667,319.20000000000005,681,319.20000000000005C690.4583333333334,319.20000000000005,690.4583333333334,287.0727272727272,699.9166666666667,287.0727272727272C709.375,287.0727272727272,709.375,220.74545454545463,718.8333333333333,220.74545454545463C728.2916666666666,220.74545454545463,728.2916666666666,556.5272727272728,737.75,556.5272727272728C747.2083333333333,556.5272727272728,747.2083333333333,181.3636363636364,756.6666666666666,181.3636363636364C766.125,181.3636363636364,766.125,357.54545454545456,775.5833333333334,357.54545454545456C785.0416666666667,357.54545454545456,785.0416666666667,448.7454545454546,794.5,448.7454545454546C803.9583333333333,448.7454545454546,803.9583333333333,293.29090909090917,813.4166666666666,293.29090909090917C822.875,293.29090909090917,822.875,220.74545454545463,832.3333333333333,220.74545454545463C841.7916666666666,220.74545454545463,841.7916666666666,189.65454545454548,851.25,189.65454545454548C860.7083333333334,189.65454545454548,860.7083333333334,261.16363636363633,870.1666666666667,261.16363636363633C879.625,261.16363636363633,879.625,152.34545454545463,889.0833333333334,152.34545454545463C898.5416666666667,152.34545454545463,898.5416666666667,152.34545454545463,908,152.34545454545463C917.4583333333333,152.34545454545463,917.4583333333333,162.70909090909095,926.9166666666666,162.70909090909095C936.375,162.70909090909095,936.375,380.3454545454545,945.8333333333334,380.3454545454545C955.2916666666667,380.3454545454545,955.2916666666667,293.29090909090917,964.75,293.29090909090917C974.2083333333334,293.29090909090917,974.2083333333334,0,983.6666666666667,0C993.125,0,993.125,468.43636363636364,1002.5833333333333,468.43636363636364C1012.0416666666666,468.43636363636364,1012.0416666666666,181.3636363636364,1021.5,181.3636363636364C1030.9583333333333,181.3636363636364,1030.9583333333333,357.54545454545456,1040.4166666666665,357.54545454545456C1049.875,357.54545454545456,1049.875,155.45454545454544,1059.3333333333333,155.45454545454544C1068.7916666666665,155.45454545454544,1068.7916666666665,380.3454545454545,1078.25,380.3454545454545C1087.7083333333335,380.3454545454545,1087.7083333333335,350.29090909090905,1097.1666666666667,350.29090909090905C1106.625,350.29090909090905,1106.625,215.56363636363636,1116.0833333333333,215.56363636363636C1125.5416666666665,215.56363636363636,1125.5416666666665,515.0727272727272,1135,515.0727272727272" stroke="rgb(245, 166, 35)" fill="none"/><text font-family="sans-serif" font-size="10" class="labels" x="983.6666666666667" y="0" dx="0" dy="-4" text-anchor="middle"/></g></g></g><text y="4" x="4" style="font-family: Arial, sans-serif; font-size: 12px; fill: black; font-weight: bold; dominant-baseline: hanging;"/></g><g id="grid"><rect x="0" y="0" width="1200" height="600" fill="none" stroke="#ccc"/></g></g></svg>