<svg xmlns="http://www.w3.org/2000/svg" width="1500" height="600"><rect width="1500" height="600" x="0" y="0" fill="#FFFFFF" id="backgorund"/><g id="viz"><clipPath id="serieClipPath"><rect x="-50" y="-10" width="1500" height="600"/></clipPath><g transform="translate(0,0)"><g transform="translate(50,10)" clip-path="url(#serieClipPath)"><g id="axis"><g transform="translate(0,570)" fill="none" font-size="10" font-family="sans-serif" text-anchor="middle"><path class="domain" stroke="currentColor" d="M0.5,6V0.5H1435.5V6"/><g class="tick" opacity="1" transform="translate(0.5,0)"><line stroke="currentColor" y2="6"/><text fill="currentColor" y="9" dy="0.71em">0</text></g><g class="tick" opacity="1" transform="translate(120.08333333333333,0)"><line stroke="currentColor" y2="6"/><text fill="currentColor" y="9" dy="0.71em">5</text></g><g class="tick" opacity="1" transform="translate(239.66666666666666,0)"><line stroke="currentColor" y2="6"/><text fill="currentColor" y="9" dy="0.71em">10</text></g><g class="tick" opacity="1" transform="translate(359.25,0)"><line stroke="currentColor" y2="6"/><text fill="currentColor" y="9" dy="0.71em">15</text></g><g class="tick" opacity="1" transform="translate(478.8333333333333,0)"><line stroke="currentColor" y2="6"/><text fill="currentColor" y="9" dy="0.71em">20</text></g><g class="tick" opacity="1" transform="translate(598.4166666666667,0)"><line stroke="currentColor" y2="6"/><text fill="currentColor" y="9" dy="0.71em">25</text></g><g class="tick" opacity="1" transform="translate(718,0)"><line stroke="currentColor" y2="6"/><text fill="currentColor" y="9" dy="0.71em">30</text></g><g class="tick" opacity="1" transform="translate(837.5833333333334,0)"><line stroke="currentColor" y2="6"/><text fill="currentColor" y="9" dy="0.71em">35</text></g><g class="tick" opacity="1" transform="translate(957.1666666666666,0)"><line stroke="currentColor" y2="6"/><text fill="currentColor" y="9" dy="0.71em">40</text></g><g class="tick" opacity="1" transform="translate(1076.75,0)"><line stroke="currentColor" y2="6"/><text fill="currentColor" y="9" dy="0.71em">45</text></g><g class="tick" opacity="1" transform="translate(1196.3333333333335,0)"><line stroke="currentColor" y2="6"/><text fill="currentColor" y="9" dy="0.71em">50</text></g><g class="tick" opacity="1" transform="translate(1315.9166666666665,0)"><line stroke="currentColor" y2="6"/><text fill="currentColor" y="9" dy="0.71em">55</text></g><g class="tick" opacity="1" transform="translate(1435.5,0)"><line stroke="currentColor" y2="6"/><text fill="currentColor" y="9" dy="0.71em">60</text></g><text x="1435" dy="-5" text-anchor="end" style="font-family: Arial, sans-serif; font-size: 12px; fill: rgb(123, 123, 123); font-weight: bold;">N° Día</text></g><g transform="translate(0,0)" fill="none" font-size="10" font-family="sans-serif" text-anchor="end"><path class="domain" stroke="currentColor" d="M0.5,570.5V0.5"/><g class="tick" opacity="1" transform="translate(0,570.5)"><line stroke="currentColor" x2="-6"/><text fill="currentColor" x="-9" dy="0.32em">5.0</text></g><g class="tick" opacity="1" transform="translate(0,518.6818181818181)"><line stroke="currentColor" x2="-6"/><text fill="currentColor" x="-9" dy="0.32em">5.5</text></g><g class="tick" opacity="1" transform="translate(0,466.8636363636363)"><line stroke="currentColor" x2="-6"/><text fill="currentColor" x="-9" dy="0.32em">6.0</text></g><g class="tick" opacity="1" transform="translate(0,415.04545454545456)"><line stroke="currentColor" x2="-6"/><text fill="currentColor" x="-9" dy="0.32em">6.5</text></g><g class="tick" opacity="1" transform="translate(0,363.22727272727275)"><line stroke="currentColor" x2="-6"/><text fill="currentColor" x="-9" dy="0.32em">7.0</text></g><g class="tick" opacity="1" transform="translate(0,311.4090909090909)"><line stroke="currentColor" x2="-6"/><text fill="currentColor" x="-9" dy="0.32em">7.5</text></g><g class="tick" opacity="1" transform="translate(0,259.5909090909091)"><line stroke="currentColor" x2="-6"/><text fill="currentColor" x="-9" dy="0.32em">8.0</text></g><g class="tick" opacity="1" transform="translate(0,207.77272727272728)"><line stroke="currentColor" x2="-6"/><text fill="currentColor" x="-9" dy="0.32em">8.5</text></g><g class="tick" opacity="1" transform="translate(0,155.95454545454544)"><line stroke="currentColor" x2="-6"/><text fill="currentColor" x="-9" dy="0.32em">9.0</text></g><g class="tick" opacity="1" transform="translate(0,104.13636363636361)"><line stroke="currentColor" x2="-6"/><text fill="currentColor" x="-9" dy="0.32em">9.5</text></g><g class="tick" opacity="1" transform="translate(0,52.318181818181834)"><line stroke="currentColor" x2="-6"/><text fill="currentColor" x="-9" dy="0.32em">10.0</text></g><g class="tick" opacity="1" transform="translate(0,0.5)"><line stroke="currentColor" x2="-6"/><text fill="currentColor" x="-9" dy="0.32em">10.5</text></g><text x="4" text-anchor="start" dominant-baseline="hanging" style="font-family: Arial, sans-serif; font-size: 12px; fill: rgb(123, 123, 123); font-weight: bold;">Horas de sueño</text></g></g><g id="viz"><g><path d="M23.916666666666668,240.43636363636367C35.875,240.43636363636367,35.875,264.27272727272725,47.833333333333336,264.27272727272725C59.79166666666667,264.27272727272725,59.79166666666667,266.3454545454546,71.75,266.3454545454546C83.70833333333334,266.3454545454546,83.70833333333334,463.25454545454545,95.66666666666667,463.25454545454545C107.625,463.25454545454545,107.625,281.8909090909091,119.58333333333333,281.8909090909091C131.54166666666666,281.8909090909091,131.54166666666666,224.89090909090908,143.5,224.89090909090908C155.45833333333331,224.89090909090908,155.45833333333331,178.25454545454554,167.41666666666666,178.25454545454554C179.375,178.25454545454554,179.375,257.0181818181819,191.33333333333334,257.0181818181819C203.29166666666669,257.0181818181819,203.29166666666669,321.2727272727272,215.25,321.2727272727272C227.20833333333331,321.2727272727272,227.20833333333331,310.9090909090909,239.16666666666666,310.9090909090909C251.125,310.9090909090909,251.125,264.27272727272725,263.0833333333333,264.27272727272725C275.04166666666663,264.27272727272725,275.04166666666663,293.29090909090917,287,293.29090909090917C298.95833333333337,293.29090909090917,298.95833333333337,293.29090909090917,310.9166666666667,293.29090909090917C322.875,293.29090909090917,322.875,339.92727272727274,334.8333333333333,339.92727272727274C346.79166666666663,339.92727272727274,346.79166666666663,217.63636363636357,358.75,217.63636363636357C370.70833333333337,217.63636363636357,370.70833333333337,285,382.6666666666667,285C394.625,285,394.625,251.83636363636361,406.5833333333333,251.83636363636361C418.54166666666663,251.83636363636361,418.54166666666663,179.2909090909091,430.5,179.2909090909091C442.4583333333333,179.2909090909091,442.4583333333333,538.9090909090909,454.41666666666663,538.9090909090909C466.375,538.9090909090909,466.375,298.4727272727273,478.3333333333333,298.4727272727273C490.29166666666663,298.4727272727273,490.29166666666663,302.6181818181818,502.24999999999994,302.6181818181818C514.2083333333333,302.6181818181818,514.2083333333333,338.8909090909091,526.1666666666666,338.8909090909091C538.125,338.8909090909091,538.125,417.6545454545455,550.0833333333334,417.6545454545455C562.0416666666667,417.6545454545455,562.0416666666667,277.7454545454545,574,277.7454545454545C585.9583333333334,277.7454545454545,585.9583333333334,433.2,597.9166666666667,433.2C609.875,433.2,609.875,191.7272727272727,621.8333333333334,191.7272727272727C633.7916666666667,191.7272727272727,633.7916666666667,285,645.75,285C657.7083333333333,285,657.7083333333333,178.25454545454554,669.6666666666666,178.25454545454554C681.625,178.25454545454554,681.625,380.3454545454545,693.5833333333334,380.3454545454545C705.5416666666667,380.3454545454545,705.5416666666667,236.29090909090903,717.5,236.29090909090903C729.4583333333334,236.29090909090903,729.4583333333334,215.56363636363636,741.4166666666667,215.56363636363636C753.375,215.56363636363636,753.375,352.3636363636364,765.3333333333334,352.3636363636364C777.2916666666667,352.3636363636364,777.2916666666667,391.74545454545455,789.2500000000001,391.74545454545455C801.2083333333334,391.74545454545455,801.2083333333334,276.70909090909095,813.1666666666666,276.70909090909095C825.125,276.70909090909095,825.125,243.54545454545453,837.0833333333334,243.54545454545453C849.0416666666667,243.54545454545453,849.0416666666667,319.20000000000005,861,319.20000000000005C872.9583333333334,319.20000000000005,872.9583333333334,287.0727272727272,884.9166666666667,287.0727272727272C896.875,287.0727272727272,896.875,220.74545454545463,908.8333333333333,220.74545454545463C920.7916666666666,220.74545454545463,920.7916666666666,556.5272727272728,932.75,556.5272727272728C944.7083333333333,556.5272727272728,944.7083333333333,181.3636363636364,956.6666666666666,181.3636363636364C968.625,181.3636363636364,968.625,357.54545454545456,980.5833333333334,357.54545454545456C992.5416666666666,357.54545454545456,992.5416666666666,448.7454545454546,1004.4999999999999,448.7454545454546C1016.4583333333333,448.7454545454546,1016.4583333333333,293.29090909090917,1028.4166666666667,293.29090909090917C1040.375,293.29090909090917,1040.375,220.74545454545463,1052.3333333333333,220.74545454545463C1064.2916666666665,220.74545454545463,1064.2916666666665,189.65454545454548,1076.25,189.65454545454548C1088.2083333333335,189.65454545454548,1088.2083333333335,261.16363636363633,1100.1666666666667,261.16363636363633C1112.125,261.16363636363633,1112.125,152.34545454545463,1124.0833333333333,152.34545454545463C1136.0416666666665,152.34545454545463,1136.0416666666665,152.34545454545463,1148,152.34545454545463C1159.9583333333335,152.34545454545463,1159.9583333333335,162.70909090909095,1171.9166666666667,162.70909090909095C1183.875,162.70909090909095,1183.875,380.3454545454545,1195.8333333333335,380.3454545454545C1207.7916666666667,380.3454545454545,1207.7916666666667,293.29090909090917,1219.75,293.29090909090917C1231.7083333333335,293.29090909090917,1231.7083333333335,0,1243.6666666666667,0C1255.625,0,1255.625,468.43636363636364,1267.5833333333333,468.43636363636364C1279.5416666666665,468.43636363636364,1279.5416666666665,181.3636363636364,1291.5,181.3636363636364C1303.4583333333333,181.3636363636364,1303.4583333333333,357.54545454545456,1315.4166666666665,357.54545454545456C1327.375,357.54545454545456,1327.375,155.45454545454544,1339.3333333333333,155.45454545454544C1351.2916666666665,155.45454545454544,1351.2916666666665,380.3454545454545,1363.25,380.3454545454545C1375.2083333333335,380.3454545454545,1375.2083333333335,350.29090909090905,1387.1666666666667,350.29090909090905C1399.125,350.29090909090905,1399.125,215.56363636363636,1411.0833333333333,215.56363636363636C1423.0416666666665,215.56363636363636,1423.0416666666665,515.0727272727272,1435,515.0727272727272" stroke="rgb(245, 166, 35)" fill="none"/><text font-family="sans-serif" font-size="10" class="labels" x="1243.6666666666667" y="0" dx="0" dy="-4" text-anchor="middle"/></g></g></g><text y="4" x="4" style="font-family: Arial, sans-serif; font-size: 12px; fill: black; font-weight: bold; dominant-baseline: hanging;"/></g><g id="grid"><rect x="0" y="0" width="1500" height="600" fill="none" stroke="#ccc"/></g></g></svg>